# xmcd CD database file
#
# Track frame offsets:
#	187
#	19332
#	42234
#	57369
#	80819
#	107314
#	127494
#	141464
#	160947
#	175909
#	200797
#	223527
#	236782
#	249572
#	276682
#	293134
#
# Disc length: 4434 seconds
#
# Revision: 9
# Processed by: cddbd v1.5.2PL0 Copyright (c) Steve Scherf et al.
# Submitted via: CDex 1.51
#
DISCID=07115010
DTITLE=Bjork - Homogenic
DYEAR=1997
DGENRE=New Age
TTITLE0=Hunter
TTITLE1=Joga
TTITLE2=Unravel
TTITLE3=Bachelorette
TTITLE4=All Neon Like
TTITLE5=5 Years
TTITLE6=Immature
TTITLE7=Alarm Call
TTITLE8=Pluto
TTITLE9=All Is Full Of Love
TTITLE10=Joga (Howie B.)
TTITLE11=Sod Off
TTITLE12=Immature (Bjork's version)
TTITLE13=So Broken
TTITLE14=Nature Is Ancient
TTITLE15=Joga (Alec Empire Mix)
EXTD=YEAR: 1997
EXTT0=
EXTT1=
EXTT2=
EXTT3=
EXTT4=
EXTT5=
EXTT6=
EXTT7=
EXTT8=
EXTT9=
EXTT10=
EXTT11=
EXTT12=
EXTT13=
EXTT14=
EXTT15=
PLAYORDER=
